<?xml version="1.0" encoding="utf-8"?>
<!-- Generator: Adobe Illustrator 19.2.1, SVG Export Plug-In . SVG Version: 6.00 Build 0)  -->
<svg version="1.1" id="Layer_1" xmlns="http://www.w3.org/2000/svg" xmlns:xlink="http://www.w3.org/1999/xlink" x="0px" y="0px"
	 viewBox="0 0 74.6 74.6" style="enable-background:new 0 0 74.6 74.6;" xml:space="preserve">
<style type="text/css">
	.st0{fill:#808080;}
	.st1{fill:#FFFFFF;}
</style>
<path class="st0" d="M57.1,74.6H17.5C7.9,74.6,0,66.7,0,57.1V17.5C0,7.9,7.9,0,17.5,0h39.6c9.6,0,17.5,7.9,17.5,17.5v39.6
	C74.6,66.7,66.7,74.6,57.1,74.6z"/>
<g>
	<path class="st1" d="M37.7,46.5H22.5l-2.8,7.8h-4.8l12.6-34.7h5.2l12.6,34.7h-4.8L37.7,46.5z M30.1,25.2l-6.3,17.6h12.6L30.1,25.2z
		"/>
	<path class="st1" d="M50.1,19.3c0-1.8,1.4-3.1,3.1-3.1c1.7,0,3,1.4,3,3.1s-1.4,3.1-3,3.1C51.4,22.4,50.1,21.1,50.1,19.3z
		 M50.8,26.9h4.6v27.4h-4.6V26.9z"/>
</g>
</svg>
