<?xml version="1.0" encoding="utf-8"?>
<!-- Generator: Adobe Illustrator 19.2.1, SVG Export Plug-In . SVG Version: 6.00 Build 0)  -->
<svg version="1.1" id="Layer_1" xmlns="http://www.w3.org/2000/svg" xmlns:xlink="http://www.w3.org/1999/xlink" x="0px" y="0px"
	 viewBox="0 0 1400 800" style="enable-background:new 0 0 1400 800;" xml:space="preserve">
<style type="text/css">
	.st0{fill:url(#SVGID_1_);}
	.st1{fill:#F2F2F2;}
	.st2{fill:#054D75;}
	.st3{fill:#046296;}
	.st4{fill:#0977A8;}
</style>
<linearGradient id="SVGID_1_" gradientUnits="userSpaceOnUse" x1="949.7126" y1="0.6887" x2="949.7126" y2="614.0699">
	<stop  offset="0.2589" style="stop-color:#0071BC"/>
	<stop  offset="1" style="stop-color:#662D91"/>
</linearGradient>
<rect x="-1216.3" y="0.7" class="st0" width="4332" height="613.4"/>
<circle class="st1" cx="1545.8" cy="408" r="3.6"/>
<circle class="st1" cx="1263.4" cy="303.1" r="2"/>
<circle class="st1" cx="800.9" cy="385.2" r="3.6"/>
<circle class="st1" cx="706.5" cy="261.4" r="1.9"/>
<circle class="st1" cx="895.5" cy="479.7" r="2.6"/>
<circle class="st1" cx="560.1" cy="153.6" r="2.6"/>
<circle class="st1" cx="1093.6" cy="206.1" r="3.6"/>
<circle class="st1" cx="907.6" cy="247.2" r="2.6"/>
<circle class="st1" cx="941.3" cy="339.7" r="3.6"/>
<circle class="st1" cx="1161.5" cy="354.1" r="2.6"/>
<circle class="st1" cx="1234" cy="219.4" r="3.6"/>
<circle class="st1" cx="1341.9" cy="407.6" r="2.6"/>
<circle class="st1" cx="1549.1" cy="190.8" r="2.6"/>
<circle class="st1" cx="1347.6" cy="254.2" r="3.6"/>
<circle class="st1" cx="1753.9" cy="253.9" r="3.6"/>
<circle class="st1" cx="645.9" cy="373.1" r="3.6"/>
<circle class="st1" cx="445.4" cy="319.6" r="3.6"/>
<circle class="st1" cx="369.9" cy="182.3" r="1.7"/>
<circle class="st1" cx="685.7" cy="235.1" r="2.6"/>
<circle class="st1" cx="727.1" cy="248.5" r="2.6"/>
<circle class="st1" cx="708.4" cy="220.4" r="2.6"/>
<circle class="st1" cx="741.5" cy="264.4" r="2.1"/>
<ellipse transform="matrix(0.9743 -0.2251 0.2251 0.9743 -42.281 176.6783)" class="st1" cx="753.5" cy="273.7" rx="2.1" ry="2.1"/>
<polygon class="st2" points="3204.1,735.9 3180.2,607.3 2960.9,514.9 2817.7,577.6 2323.1,391.2 2012.4,579.2 1793.5,500 
	1647.6,595.7 1304.4,462.1 1006.5,608.6 753.1,513.6 609.8,576.2 115.3,389.8 -195.4,577.9 -414.3,498.7 -560.3,594.4 -903.5,460.8 
	-1203.4,619.1 -1241.2,732.9 996.3,734.6 996.3,734.3 "/>
<polygon class="st3" points="3214.4,736 3176.6,622.2 2876.6,463.9 2533.4,597.5 2387.5,501.8 2168.6,581 1857.8,392.9 
	1363.3,579.3 1220.1,516.7 973.6,629.7 973.4,629.2 668.8,465.2 325.6,598.8 179.7,503.1 -39.2,582.3 -350,394.3 -844.5,580.7 
	-987.7,518 -1207.1,610.4 -1231,739 976.8,737.4 976.9,737.7 "/>
<polygon class="st4" points="3213,801.3 3189.2,683 2969.8,598 2826.6,655.7 2332.1,484.3 2021.3,657.2 1802.4,584.4 1656.5,672.4 
	1383.7,549 1039.8,682.7 791.7,598 620.1,654.4 125.6,482.9 -185.2,655.9 -404,583.1 -550,671 -893.2,548.2 -1193.1,693.8 
	-1231,798.5 1006.6,800 1006.5,799.8 "/>
<circle class="st1" cx="1621.6" cy="403.3" r="2"/>
<circle class="st1" cx="1451.8" cy="306.3" r="3.6"/>
<circle class="st1" cx="1578.8" cy="279.6" r="3.6"/>
<circle class="st1" cx="1826" cy="314.3" r="3.6"/>
<circle class="st1" cx="1696.1" cy="307.3" r="2.6"/>
<circle class="st1" cx="1902.2" cy="186" r="3.6"/>
<circle class="st1" cx="1996.8" cy="414.2" r="2.6"/>
<circle class="st1" cx="2053.7" cy="201.2" r="1.4"/>
<circle class="st1" cx="2249.7" cy="343.2" r="2"/>
<circle class="st1" cx="1986.4" cy="299.6" r="3.6"/>
<circle class="st1" cx="2411.5" cy="291.6" r="1"/>
<circle class="st1" cx="2438.9" cy="399.9" r="3.6"/>
<circle class="st1" cx="2158.3" cy="289.3" r="1.4"/>
<circle class="st1" cx="2081.3" cy="412.8" r="2.6"/>
<circle class="st1" cx="2217.7" cy="195" r="2"/>
<circle class="st1" cx="2151.3" cy="358.6" r="1.3"/>
<circle class="st1" cx="2442.1" cy="182.6" r="2.6"/>
<circle class="st1" cx="2358.8" cy="243.9" r="1.5"/>
<ellipse transform="matrix(0.7071 -0.7071 0.7071 0.7071 623.6328 1890.2)" class="st1" cx="2593.5" cy="192.3" rx="3.6" ry="3.6"/>
<circle class="st1" cx="2501.3" cy="341.7" r="2"/>
<circle class="st1" cx="2718.4" cy="265.4" r="2.9"/>
<circle class="st1" cx="3029.1" cy="395.3" r="1.5"/>
<circle class="st1" cx="2851.5" cy="261.6" r="2"/>
<circle class="st1" cx="2589.2" cy="299.2" r="2.6"/>
<circle class="st1" cx="2889.9" cy="406.1" r="2.6"/>
<circle class="st1" cx="2907.8" cy="331.8" r="2.5"/>
<ellipse transform="matrix(0.7071 -0.7071 0.7071 0.7071 470.0789 1932.3324)" class="st1" cx="2567.6" cy="398.7" rx="2.1" ry="2.1"/>
<circle class="st1" cx="2788.1" cy="353.8" r="1.8"/>
<circle class="st1" cx="2673.4" cy="402.1" r="2.6"/>
<circle class="st1" cx="3028.9" cy="464" r="1"/>
<circle class="st1" cx="3019.5" cy="339" r="2.6"/>
<circle class="st1" cx="2976.2" cy="416.3" r="1.5"/>
<circle class="st1" cx="2991.4" cy="249.5" r="2.6"/>
<circle class="st1" cx="-1140" cy="377.2" r="2"/>
<circle class="st1" cx="-1181" cy="255.2" r="1.8"/>
<circle class="st1" cx="-910.1" cy="203.5" r="2"/>
<circle class="st1" cx="-1065.5" cy="281.2" r="2.6"/>
<circle class="st1" cx="-857.7" cy="161.5" r="2"/>
<circle class="st1" cx="-707.8" cy="175" r="1.4"/>
<circle class="st1" cx="-531.3" cy="255.2" r="3.6"/>
<circle class="st1" cx="-350.1" cy="265.5" r="1"/>
<circle class="st1" cx="-322.7" cy="373.7" r="3.6"/>
<circle class="st1" cx="-803.8" cy="263.2" r="1.4"/>
<circle class="st1" cx="-760.5" cy="346.6" r="2.6"/>
<circle class="st1" cx="-543.9" cy="168.9" r="2"/>
<circle class="st1" cx="-677.1" cy="479.4" r="1.3"/>
<circle class="st1" cx="-319.4" cy="156.5" r="2.6"/>
<circle class="st1" cx="-402.8" cy="217.8" r="1.5"/>
<circle class="st1" cx="-260.3" cy="315.6" r="2"/>
<circle class="st1" cx="361.1" cy="329.1" r="1.5"/>
<circle class="st1" cx="-17" cy="195.3" r="2"/>
<circle class="st1" cx="72.8" cy="150.7" r="2.6"/>
<circle class="st1" cx="146.2" cy="305.7" r="2.5"/>
<circle class="st1" cx="129.7" cy="237" r="2"/>
<ellipse transform="matrix(0.7071 -0.7071 0.7071 0.7071 -228.5153 -48.587)" class="st1" cx="-172.9" cy="251.5" rx="2.1" ry="2.1"/>
<circle class="st1" cx="-90.4" cy="286.3" r="1.8"/>
<circle class="st1" cx="-88.2" cy="456.2" r="2.6"/>
<circle class="st1" cx="734.4" cy="458" r="1"/>
<circle class="st1" cx="214.7" cy="390.2" r="1.5"/>
<circle class="st1" cx="249.1" cy="243.4" r="2"/>
<circle class="st1" cx="8.4" cy="309.5" r="1.8"/>
<ellipse transform="matrix(0.7071 -0.7071 0.7071 0.7071 -550.942 -513.5959)" class="st1" cx="-895.4" cy="408.2" rx="2.8" ry="2.8"/>
<circle class="st1" cx="-660.5" cy="353.4" r="2.6"/>
<circle class="st1" cx="-506" cy="404.6" r="1.3"/>
<circle class="st1" cx="1146.7" cy="447.3" r="3.6"/>
<circle class="st1" cx="1049.9" cy="338.1" r="1.7"/>
<circle class="st1" cx="696.4" cy="200.7" r="2.6"/>
<circle class="st1" cx="1008.9" cy="520.8" r="1.5"/>
<circle class="st1" cx="481.8" cy="232.3" r="2.6"/>
<circle class="st1" cx="538.7" cy="318.6" r="2"/>
<circle class="st1" cx="435.5" cy="409.2" r="1.8"/>
<circle class="st1" cx="624.2" cy="227.3" r="1"/>
<circle class="st1" cx="972.5" cy="491.3" r="2.6"/>
<circle class="st1" cx="836.8" cy="505.6" r="1.5"/>
<circle class="st1" cx="638.9" cy="304.9" r="2.6"/>
<circle class="st1" cx="586.8" cy="238.4" r="2"/>
<circle class="st1" cx="445.5" cy="478.2" r="1.8"/>
<g>
	<path class="st3" d="M3021.9,656.3c-0.1-0.1-0.1-0.3-0.2-0.4c3.9-5.5,8.2-10.6,12.9-15.4c0.5-0.5,0.4-3-0.6-2.7
		c-7.6,2.7-15.2,5.4-22.8,8.3c-7.5,2.9-15.4,5.5-22.5,9.4c-0.3,0.2-0.3,1.6,0.1,1.5c7.6-2,14.9-5.4,22.3-8.1
		c6.2-2.3,12.4-4.5,18.7-6.7c-3.3,3.6-6.4,7.5-9.2,11.5c-0.5-1-0.9-2-1.4-3c-0.5-1.1-0.9-3-2-3.5c0,0,0,0.1,0,0.1
		c0.1,2.6,1.3,5.2,2.5,7.7c-3.6,5.1-4,5-6.4,10.7c-0.2,0.5,0.2,3.3,0.8,2.3c3.3-5.5,3-5.5,6.6-10.8c0.1,0.1,0.1,0.3,0.2,0.4
		c1.8,4,3.6,7.9,5.7,11.7c0.6,1.1,1-1.1,0.7-1.7C3025.7,663.8,3023.7,660.1,3021.9,656.3z"/>
	<path class="st3" d="M3051.3,650.6c-1.6,0.2-3.1,1.7-4.3,2.6c-1.4,1.1-2.8,2.1-4.2,3.1c0.6-3,1.3-6,2.1-9c1-3.8,2.5-7.8,2.9-11.7
		c0-0.3-0.3-2-0.8-1.3c-0.1,0.2-3.8,3.4-5.3,4.9c-1.7,1.7-3.3,3.4-4.9,5.1c-1.3,1.4-2.5,2.8-3.7,4.2c-0.2-0.3-0.4-0.6-0.6-0.9
		c-0.5-0.7-0.6,1.2-0.6,1.4c0.1,0.2,0.1,0.5,0.2,0.7c-1.1,1.3-2.1,2.7-3,4.1c-0.1-0.1-0.1-0.1-0.2-0.2c-0.4-0.4-0.4,0.7-0.4,0.9
		c0,0,0,0.1,0,0.1c-0.4,0.7-0.9,1.3-1.3,2c-0.2,0.4-0.1,2.6,0.5,1.8c0.5-0.6,1-1.2,1.5-1.8c0.4,1,0.9,2,1.3,3
		c0.7,1.7,1.4,3.5,2.4,5.1c0.6,0.9,0.8-1.6,0.6-2c-0.7-1.8-1.6-3.5-2.5-5.2c-0.3-0.6-0.6-1.3-1-2c0.9-1.2,1.8-2.3,2.8-3.5
		c0.5,1.2,1.1,2.3,1.7,3.5c0.9,1.8,1.7,4.4,3.3,5.9c0.6,0.5,0.6-1,0.5-1.2c-0.6-2.3-1.9-4.5-3-6.6c-0.5-0.9-0.9-1.9-1.4-2.9
		c1-1.2,2-2.4,3-3.6c2.6-3,5.7-5.7,8.3-8.8c-0.7,2.4-1.1,4.9-1.7,7.1c-1.1,4.2-2.1,8.4-2.8,12.6c-0.1,0.3,0,2.8,0.8,2.2
		c2-1.3,3.8-2.8,5.6-4.4c1.4-1.2,3.1-2.4,4.1-4C3051.6,651.7,3051.7,650.6,3051.3,650.6z"/>
</g>
</svg>
