<?xml version="1.0" encoding="utf-8"?>
<!-- Generator: Adobe Illustrator 19.2.1, SVG Export Plug-In . SVG Version: 6.00 Build 0)  -->
<svg version="1.1" id="Layer_1" xmlns="http://www.w3.org/2000/svg" xmlns:xlink="http://www.w3.org/1999/xlink" x="0px" y="0px"
	 viewBox="0 0 74.6 74.6" style="enable-background:new 0 0 74.6 74.6;" xml:space="preserve">
<style type="text/css">
	.st0{fill:#808080;}
	.st1{fill:#FFFFFF;}
	.st2{fill:#CCCCCC;}
	.st3{fill:#E6E6E6;}
	.st4{fill:#F2F2F2;}
</style>
<path class="st0" d="M57.1,74.6H17.5C7.9,74.6,0,66.7,0,57.1V17.5C0,7.9,7.9,0,17.5,0h39.6c9.6,0,17.5,7.9,17.5,17.5v39.6
	C74.6,66.7,66.7,74.6,57.1,74.6z"/>
<path class="st0" d="M2.8,159.7h-39.6c-9.6,0-17.5-7.9-17.5-17.5v-39.6c0-9.6,7.9-17.5,17.5-17.5H2.8c9.6,0,17.5,7.9,17.5,17.5v39.6
	C20.4,151.8,12.5,159.7,2.8,159.7z"/>
<text transform="matrix(1 0 0 1 -40.9719 139.389)" class="st1" style="font-family:'Poppins-Regular'; font-size:50px;">Ai</text>
<g>
	<path class="st1" d="M24.4,39.7h-6.7v14.6h-4.6V19.4h11.3c8.2,0,12.1,4.5,12.1,10.2C36.4,34.9,33,39.7,24.4,39.7z M24.4,36
		c5.2,0,7.4-2.5,7.4-6.4c0-4.1-2.2-6.5-7.4-6.5h-6.7V36H24.4z"/>
	<path class="st1" d="M51.8,54.7c-6.4,0-10.9-3.5-11.2-8.5h4.7c0.2,2.7,2.6,4.7,6.5,4.7c3.6,0,5.6-1.8,5.6-4
		c0-6.1-16.2-2.6-16.2-12.8c0-4.2,4-7.7,10.1-7.7c6.1,0,10.1,3.2,10.4,8.6H57c-0.2-2.8-2.3-4.8-6-4.8c-3.4,0-5.4,1.6-5.4,3.8
		c0,6.5,15.9,3,16.1,12.8C61.8,51.3,57.8,54.7,51.8,54.7z"/>
</g>
<path class="st0" d="M202.8,159.7h-39.6c-9.6,0-17.5-7.9-17.5-17.5v-39.6c0-9.6,7.9-17.5,17.5-17.5h39.6c9.6,0,17.5,7.9,17.5,17.5
	v39.6C220.4,151.8,212.5,159.7,202.8,159.7z"/>
<text transform="matrix(1 0 0 1 160.041 139.389)" class="st1" style="font-family:'Poppins-Regular'; font-size:50px;">Id</text>
<path class="st0" d="M302.8,159.7h-39.6c-9.6,0-17.5-7.9-17.5-17.5v-39.6c0-9.6,7.9-17.5,17.5-17.5h39.6c9.6,0,17.5,7.9,17.5,17.5
	v39.6C320.4,151.8,312.5,159.7,302.8,159.7z"/>
<text transform="matrix(1 0 0 1 260.0473 139.389)" class="st1" style="font-family:'Poppins-Regular'; font-size:50px;">Pr</text>
<path class="st0" d="M402.9,159.7h-39.6c-9.6,0-17.5-7.9-17.5-17.5v-39.6c0-9.6,7.9-17.5,17.5-17.5h39.6c9.6,0,17.5,7.9,17.5,17.5
	v39.6C420.4,151.8,412.5,159.7,402.9,159.7z"/>
<text transform="matrix(1 0 0 1 351.0529 139.389)" class="st1" style="font-family:'Poppins-Regular'; font-size:50px;">Ae</text>
<g>
	<path class="st0" d="M101.1,255.2H61.6c-9.6,0-17.5-7.9-17.5-17.5v-39.6c0-9.6,7.9-17.5,17.5-17.5h39.6c9.6,0,17.5,7.9,17.5,17.5
		v39.6C118.7,247.4,110.8,255.2,101.1,255.2z"/>
	<g>
		<polygon class="st2" points="55.3,210.8 66.4,195.8 66.1,210.9 		"/>
		<polygon class="st3" points="66.4,195.8 80.8,194.4 66.1,210.9 		"/>
		<polygon class="st4" points="80.8,194.4 66.1,210.9 96.7,210.9 		"/>
		<polygon class="st3" points="80.8,194.4 96.2,195.8 96.7,210.9 		"/>
		<polygon class="st2" points="96.2,195.8 107.4,210.9 96.7,210.9 		"/>
		<polygon class="st1" points="66.1,210.9 81.3,241.5 96.7,210.9 		"/>
		<polygon class="st3" points="81.3,241.5 107.4,210.9 96.7,210.9 		"/>
		<polygon class="st3" points="55.3,210.8 66.1,210.9 81.3,241.5 		"/>
	</g>
</g>
<path class="st0" d="M502.9,159.7h-39.6c-9.6,0-17.5-7.9-17.5-17.5v-39.6c0-9.6,7.9-17.5,17.5-17.5h39.6c9.6,0,17.5,7.9,17.5,17.5
	v39.6C520.4,151.8,512.5,159.7,502.9,159.7z"/>
<text transform="matrix(1 0 0 1 451.059 139.389)" class="st1" style="font-family:'Poppins-Regular'; font-size:50px;">Xd</text>
<g>
	<path class="st0" d="M0.9,255.2h-39.6c-9.6,0-17.5-7.9-17.5-17.5v-39.6c0-9.6,7.9-17.5,17.5-17.5H0.9c9.6,0,17.5,7.9,17.5,17.5
		v39.6C18.4,247.4,10.6,255.2,0.9,255.2z"/>
	<polygon class="st1" points="-36.7,206.2 -36.9,219 -1,230 -1,217.4 	"/>
	<polygon class="st2" points="-36.7,206.2 -1.9,195.3 -1.9,208.3 -16.4,212.6 	"/>
	<polygon class="st2" points="-21.5,223.7 -36.7,228.4 -36.7,242 -1,230 	"/>
</g>
</svg>
