<?xml version="1.0" encoding="utf-8"?>
<!-- Generator: Adobe Illustrator 19.2.1, SVG Export Plug-In . SVG Version: 6.00 Build 0)  -->
<svg version="1.1" id="Layer_1" xmlns="http://www.w3.org/2000/svg" xmlns:xlink="http://www.w3.org/1999/xlink" x="0px" y="0px"
	 viewBox="0 0 74.6 74.6" style="enable-background:new 0 0 74.6 74.6;" xml:space="preserve">
<style type="text/css">
	.st0{fill:#808080;}
	.st1{fill:#CCCCCC;}
	.st2{fill:#E6E6E6;}
	.st3{fill:#F2F2F2;}
	.st4{fill:#FFFFFF;}
</style>
<g>
	<path class="st0" d="M57.1,74.6H17.5C7.9,74.6,0,66.7,0,57.1V17.5C0,7.9,7.9,0,17.5,0h39.6c9.6,0,17.5,7.9,17.5,17.5v39.6
		C74.6,66.7,66.7,74.6,57.1,74.6z"/>
	<g>
		<polygon class="st1" points="11.2,30.2 22.4,15.2 22,30.3 		"/>
		<polygon class="st2" points="22.4,15.2 36.7,13.8 22,30.3 		"/>
		<polygon class="st3" points="36.7,13.8 22,30.3 52.7,30.3 		"/>
		<polygon class="st2" points="36.7,13.8 52.1,15.2 52.7,30.3 		"/>
		<polygon class="st1" points="52.1,15.2 63.4,30.3 52.7,30.3 		"/>
		<polygon class="st4" points="22,30.3 37.2,60.8 52.7,30.3 		"/>
		<polygon class="st2" points="37.2,60.8 63.4,30.3 52.7,30.3 		"/>
		<polygon class="st2" points="11.2,30.2 22,30.3 37.2,60.8 		"/>
	</g>
</g>
<g>
	<path class="st0" d="M2.9,281.7h-39.6c-9.6,0-17.5-7.9-17.5-17.5v-39.6c0-9.6,7.9-17.5,17.5-17.5H2.9c9.6,0,17.5,7.9,17.5,17.5
		v39.6C20.4,273.8,12.5,281.7,2.9,281.7z"/>
	<polygon class="st4" points="-34.8,232.6 -34.9,245.4 1,256.4 1,243.9 	"/>
	<polygon class="st1" points="-34.8,232.6 0.1,221.7 0.1,234.7 -14.4,239 	"/>
	<polygon class="st1" points="-19.5,250.1 -34.8,254.8 -34.8,268.4 1,256.4 	"/>
</g>
</svg>
