<?xml version="1.0" encoding="utf-8"?>
<!-- Generator: Adobe Illustrator 19.2.1, SVG Export Plug-In . SVG Version: 6.00 Build 0)  -->
<svg version="1.1" id="Layer_1" xmlns="http://www.w3.org/2000/svg" xmlns:xlink="http://www.w3.org/1999/xlink" x="0px" y="0px"
	 viewBox="0 0 74.6 74.6" style="enable-background:new 0 0 74.6 74.6;" xml:space="preserve">
<style type="text/css">
	.st0{fill:#808080;}
	.st1{fill:#FFFFFF;}
	.st2{fill:#CCCCCC;}
	.st3{fill:#E6E6E6;}
	.st4{fill:#F2F2F2;}
</style>
<path class="st0" d="M57.1,74.6H17.5C7.9,74.6,0,66.7,0,57.1V17.5C0,7.9,7.9,0,17.5,0h39.6c9.6,0,17.5,7.9,17.5,17.5v39.6
	C74.6,66.7,66.7,74.6,57.1,74.6z"/>
<g>
	<path class="st1" d="M29.7,46.5H14.5l-2.8,7.8H6.9l12.6-34.7h5.2l12.6,34.7h-4.8L29.7,46.5z M22.1,25.2l-6.3,17.6h12.6L22.1,25.2z"
		/>
	<path class="st1" d="M54.7,54.7c-7.8,0-13.6-5.5-13.6-14.2c0-8.7,5.6-14.1,13.6-14.1c8,0,13.2,5.6,13.2,13.1c0,1,0,1.8-0.1,2.8
		H45.8c0.3,5.6,4.2,8.6,8.9,8.6c4.1,0,6.7-2.1,7.7-5h4.9C65.9,50.8,61.5,54.7,54.7,54.7z M45.8,38.6h17.3c0.1-5.4-4-8.3-8.7-8.3
		C50,30.3,46.3,33.2,45.8,38.6z"/>
</g>
<g>
	<path class="st0" d="M101.1,255.2H61.6c-9.6,0-17.5-7.9-17.5-17.5v-39.6c0-9.6,7.9-17.5,17.5-17.5h39.6c9.6,0,17.5,7.9,17.5,17.5
		v39.6C118.7,247.4,110.8,255.2,101.1,255.2z"/>
	<g>
		<polygon class="st2" points="55.3,210.8 66.4,195.8 66.1,210.9 		"/>
		<polygon class="st3" points="66.4,195.8 80.8,194.4 66.1,210.9 		"/>
		<polygon class="st4" points="80.8,194.4 66.1,210.9 96.7,210.9 		"/>
		<polygon class="st3" points="80.8,194.4 96.2,195.8 96.7,210.9 		"/>
		<polygon class="st2" points="96.2,195.8 107.4,210.9 96.7,210.9 		"/>
		<polygon class="st1" points="66.1,210.9 81.3,241.5 96.7,210.9 		"/>
		<polygon class="st3" points="81.3,241.5 107.4,210.9 96.7,210.9 		"/>
		<polygon class="st3" points="55.3,210.8 66.1,210.9 81.3,241.5 		"/>
	</g>
</g>
<path class="st0" d="M502.9,159.7h-39.6c-9.6,0-17.5-7.9-17.5-17.5v-39.6c0-9.6,7.9-17.5,17.5-17.5h39.6c9.6,0,17.5,7.9,17.5,17.5
	v39.6C520.4,151.8,512.5,159.7,502.9,159.7z"/>
<text transform="matrix(1 0 0 1 451.059 139.389)" class="st1" style="font-family:'Poppins-Regular'; font-size:50px;">Xd</text>
<g>
	<path class="st0" d="M2.9,281.7h-39.6c-9.6,0-17.5-7.9-17.5-17.5v-39.6c0-9.6,7.9-17.5,17.5-17.5H2.9c9.6,0,17.5,7.9,17.5,17.5
		v39.6C20.4,273.8,12.5,281.7,2.9,281.7z"/>
	<polygon class="st1" points="-34.8,232.6 -34.9,245.4 1,256.4 1,243.9 	"/>
	<polygon class="st2" points="-34.8,232.6 0.1,221.7 0.1,234.7 -14.4,239 	"/>
	<polygon class="st2" points="-19.5,250.1 -34.8,254.8 -34.8,268.4 1,256.4 	"/>
</g>
</svg>
