<?xml version="1.0" encoding="utf-8"?>
<!-- Generator: Adobe Illustrator 19.2.1, SVG Export Plug-In . SVG Version: 6.00 Build 0)  -->
<svg version="1.1" id="Layer_1" xmlns="http://www.w3.org/2000/svg" xmlns:xlink="http://www.w3.org/1999/xlink" x="0px" y="0px"
	 viewBox="0 0 149.4 149.3" style="enable-background:new 0 0 149.4 149.3;" xml:space="preserve">
<style type="text/css">
	.st0{fill:#999999;}
	.st1{fill:#FFFFFF;}
</style>
<g>
	<g>
		<path class="st0" d="M129,149.3H20.4C9.2,149.3,0,140.1,0,128.9V20.4C0,9.2,9.2,0,20.4,0H129c11.2,0,20.4,9.2,20.4,20.4V129
			C149.4,140.2,140.2,149.3,129,149.3z"/>
	</g>
</g>
<g>
	<g>
		<g>
			<g>
				<path class="st1" d="M42.6,74.7h8.2v32.2c0,0.8,0.7,1.5,1.5,1.5h15.6l0.2,0.9c1.1,5.8,6.3,10,12.2,10c6.9,0,12.5-5.6,12.5-12.4
					c0-6.9-5.6-12.5-12.5-12.5c-5.9,0-11.1,4.2-12.2,10l-0.2,0.9H53.8V74.7h14.1l0.2,0.9c1.1,5.9,6.2,10.1,12.2,10.1
					c6.1,0,11.3-4.4,12.3-10.4l0.2-1h19v-2.9H92.7l-0.2-0.9c-1.2-5.7-6.4-9.8-12.2-9.8c-5.9,0-11,4.2-12.2,9.9l-0.2,0.9H42.6V59.4
					c0-0.8-0.7-1.5-1.5-1.5H18.5c-0.8,0-1.5,0.7-1.5,1.5v28c0,0.8,0.7,1.5,1.5,1.5h22.6c0.8,0,1.5-0.7,1.5-1.5
					C42.6,87.4,42.6,74.7,42.6,74.7z M80.3,116.4c-5.2,0-9.5-4.2-9.5-9.5l0,0c0-5.2,4.3-9.5,9.5-9.5s9.5,4.3,9.5,9.5
					C89.7,112.2,85.5,116.4,80.3,116.4z M39.6,85.9H20v-25h19.6C39.6,60.9,39.6,85.9,39.6,85.9z M80.3,82.8c-5.2,0-9.5-4.3-9.5-9.5
					s4.3-9.5,9.5-9.5s9.5,4.3,9.5,9.5C89.7,78.6,85.5,82.8,80.3,82.8z"/>
			</g>
		</g>
		<path class="st1" d="M131.3,69.1v6.3c0,3.7-3,6.7-6.7,6.7h-6.3c-3.7,0-6.7-3-6.7-6.7v-6.3c0-3.7,3-6.7,6.7-6.7h6.3
			C128.3,62.3,131.3,65.4,131.3,69.1z"/>
	</g>
	<g>
		<g>
			<g>
				<path class="st1" d="M54.1,73V42.2h14.1l0.2,0.9c1.1,5.8,6.3,10,12.2,10c6.9,0,12.5-5.6,12.5-12.5s-5.6-12.4-12.5-12.4
					c-5.9,0-11.1,4.2-12.2,10l-0.2,0.9H52.6c-0.8,0-1.5,0.7-1.5,1.5v32.2 M90.1,40.8c0,5.2-4.3,9.5-9.5,9.5s-9.5-4.2-9.5-9.5l0,0
					c0-5.2,4.3-9.5,9.5-9.5S90.1,35.5,90.1,40.8z"/>
			</g>
		</g>
	</g>
</g>
</svg>
