<?xml version="1.0" encoding="utf-8"?>
<!-- Generator: Adobe Illustrator 19.2.1, SVG Export Plug-In . SVG Version: 6.00 Build 0)  -->
<svg version="1.1" id="Layer_1" xmlns="http://www.w3.org/2000/svg" xmlns:xlink="http://www.w3.org/1999/xlink" x="0px" y="0px"
	 viewBox="0 0 149.4 149.3" style="enable-background:new 0 0 149.4 149.3;" xml:space="preserve">
<style type="text/css">
	.st0{fill:#999999;}
	.st1{fill:#FFFFFF;}
</style>
<g>
	<g>
		<path class="st0" d="M129,149.3H20.4C9.2,149.3,0,140.1,0,128.9V20.4C0,9.2,9.2,0,20.4,0H129c11.2,0,20.4,9.2,20.4,20.4V129
			C149.4,140.2,140.2,149.3,129,149.3z"/>
	</g>
</g>
<g>
	<g>
		<g>
			<path class="st1" d="M61.1,54c-1.9,0-3.7,0.5-5.2,1.5c1.1,1.8,2.2,3.6,3.2,5.3c0.6-0.4,1.3-0.6,2-0.6h6.1c-1.2-1.9-2.5-4-3.8-6.2
				H61.1z"/>
		</g>
		<g>
			<path class="st1" d="M100.9,54H79.6c0.8,1.4,1.6,2.7,2.3,3.8c0.6,0.9,1,1.7,1.5,2.4h17.5c2.1,0,3.8,1.7,3.8,3.8v46.6
				c0,2.1-1.7,3.8-3.8,3.8H61.1c-2.1,0-3.8-1.7-3.8-3.8V82.8c-1.2-0.9-2.2-1.9-3-3.2c-0.7-1.1-1.8-3-3.3-5.4v36.4
				c0,5.5,4.5,10,10,10h39.8c5.5,0,10-4.5,10-10V64C110.9,58.5,106.4,54,100.9,54z"/>
		</g>
	</g>
	<g>
		<path class="st1" d="M76.4,88.1c-1,0-1.9-0.2-2.8-0.7l-13.2-7.1c-1.2-0.6-2.1-1.5-2.8-2.7c-3.1-5-16.9-27.9-19.8-32.9
			c-1.2-2-1.4-4.3-0.6-6.3c0.6-1.5,1.6-2.7,2.9-3.5l10.7-6.7c0.2-0.1,0.5-0.3,0.7-0.4c3.3-1.6,7.3-0.4,9.3,2.8
			c2.4,3.8,9.5,15.5,11.7,19c4.9,8.1,7.2,11.9,8.3,13.9c0.6,0.6,1,1.3,1,2.2l0.6,16.1c0.1,2.2-1,4.2-2.8,5.3
			C78.6,87.8,77.5,88.1,76.4,88.1z M54.5,33.3c-0.1,0-0.2,0-0.3,0.1l-10.8,6.8c-0.3,0.2-0.4,0.4-0.5,0.6c-0.1,0.2,0,0.6,0.2,0.9
			c2.9,5,16.7,27.8,19.8,32.8c0.1,0.2,0.3,0.3,0.5,0.4l12.9,6.9l-0.5-14.9C73.6,63.2,59.3,39.7,55.7,34
			C55.3,33.5,54.9,33.3,54.5,33.3z"/>
	</g>
</g>
</svg>
