<?xml version="1.0" encoding="utf-8"?>
<!-- Generator: Adobe Illustrator 19.2.1, SVG Export Plug-In . SVG Version: 6.00 Build 0)  -->
<svg version="1.1" id="Layer_1" xmlns="http://www.w3.org/2000/svg" xmlns:xlink="http://www.w3.org/1999/xlink" x="0px" y="0px"
	 viewBox="0 0 149.4 149.3" style="enable-background:new 0 0 149.4 149.3;" xml:space="preserve">
<style type="text/css">
	.st0{fill:#999999;}
	.st1{fill:#FFFFFF;}
</style>
<g>
	<g>
		<path class="st0" d="M129,149.3H20.4C9.2,149.3,0,140.1,0,128.9V20.4C0,9.2,9.2,0,20.4,0H129c11.2,0,20.4,9.2,20.4,20.4V129
			C149.4,140.2,140.2,149.3,129,149.3z"/>
	</g>
</g>
<g>
	<path class="st1" d="M114.3,33.1H56.4c-5.2,0-10.1,3.8-10.1,9v6.6H35.4c-5.2,0-9.9,3.4-9.9,8.6v46.8c0,5.2,4.7,9.6,9.9,9.6h19.4
		c5.2,0,8.3-4.4,8.3-9.6v-6h51.2c5.2,0,8.6-4.1,8.6-9.3V42.1C123,36.9,119.5,33.1,114.3,33.1z M114.3,39.6c2,0,3.4,0.5,3.4,2.5v46.7
		c0,2-1.5,4.1-3.4,4.1H63.2V57.3c0-5.2-3.1-8.6-8.3-8.6h-2.1v-6.6c0-2,1.6-2.5,3.6-2.5H114.3z M58,104.9c0,2-1.6,3.6-3.6,3.6H34.3
		c-2,0-3.6-1.6-3.6-3.6V57.5c0-2,1.6-3.6,3.6-3.6h20.1c2,0,3.6,1.6,3.6,3.6V104.9z"/>
	<circle class="st1" cx="85.4" cy="86.7" r="2.8"/>
	<path class="st1" d="M45.2,105.1c-1.6,0-2.8-1.3-2.8-2.8s1.3-2.8,2.8-2.8s2.8,1.3,2.8,2.8S46.7,105.1,45.2,105.1z"/>
	<circle class="st1" cx="45.2" cy="102.2" r="2.8"/>
</g>
</svg>
