<svg id="Layer_1" data-name="Layer 1" xmlns="http://www.w3.org/2000/svg" viewBox="0 0 150 150"><defs><style>.cls-1{fill:#fff;}</style></defs><title>logo</title><path class="cls-1" d="M75,0h0A75,75,0,0,0,1,62.84c10.16-2.57,20.45-4.72,30.48-7.06q28.34-6.63,56.87-12.4c2.47-.5,1.72,5.56.48,6.54A316,316,0,0,0,53.25,82.45l0.3,1c3,9.62,6.48,19.12,9.57,28.72,0.46,1.42-1,6.71-2.18,3.8A303.17,303.17,0,0,1,51,86.24l-0.3-1c-10.3,11.45-9.61,11.49-19.24,23.48-1.79,2.23-1.93-4.5-1.24-5.68C37.73,90,38.69,90.6,48.9,79.56c-2-6.29-4-13.05-3.54-19.18,0,0,0-.21.12-0.16,2.57,1.63,2.83,6.18,3.68,9l2.32,7.62A307.5,307.5,0,0,1,77.11,52.48q-23.37,4.7-46.64,9.88c-10,2.24-20.12,5-30.26,7.35C0.08,71.46,0,73.22,0,75H0a75,75,0,0,0,75,75h0a75,75,0,0,0,75-75h0A75,75,0,0,0,75,0Zm50.18,82.54c-3,3.49-7.26,5.83-11.08,8.31a158.62,158.62,0,0,1-14.71,8.62c-2.17,1.1-1.46-4.73-1.2-5.52,3.23-9.83,6.9-19.5,10.8-29.08,2.08-5.1,3.93-11,6.31-16.37C108.17,55,99.89,60.44,92.7,66.67c-2.86,2.48-5.65,5-8.41,7.61,0.78,2.47,1.5,5,2.3,7.36,1.82,5.42,4.29,11,4.92,16.71,0.07,0.6-.41,4.22-1.58,2.76-3.15-3.93-4.31-10.36-5.88-15-1-2.87-2-5.82-2.92-8.81Q77.25,81,73.4,84.71c0.63,1.72,1.15,3.5,1.7,5.13,1.47,4.35,3.1,8.68,4.17,13.15,0.22,0.94-1.05,6.92-2.12,4.57A89.15,89.15,0,0,1,73,94.64c-0.71-2.51-1.48-5-2.13-7.57q-2,1.93-4.06,3.85c-1.65,1.55-1.34-3.59-.64-4.51,1.16-1.51,2.39-3,3.63-4.42V81.76c-0.06-.42.36-3.11,1.16-2,0.13,0.18.24,0.37,0.36,0.55,2.7-3,5.56-5.92,8.51-8.72-0.09-.57-0.18-1.14-0.24-1.71s0.89-5.06,1.82-3.16c0.38,0.78.73,1.59,1.06,2.4,3.34-3,6.78-6,10.23-8.85q6.53-5.41,13.3-10.53c4.15-3.15,8.45-6.78,13.33-8.78,0.27-.41.55-0.82,0.84-1.21,1.24-1.71,1.53,2.64,1.39,3.23-2.14,9.21-7.06,18.09-10.62,26.84-2.77,6.82-5.41,13.69-7.86,20.62,3.69-2,7.34-4,11-6.08,3.2-1.83,7.26-5.06,11.12-4.92C126.23,79.49,125.55,82.1,125.18,82.54Z"/></svg>