<?xml version="1.0" encoding="utf-8"?>
<!-- Generator: Adobe Illustrator 19.2.1, SVG Export Plug-In . SVG Version: 6.00 Build 0)  -->
<svg version="1.1" id="Layer_1" xmlns="http://www.w3.org/2000/svg" xmlns:xlink="http://www.w3.org/1999/xlink" x="0px" y="0px"
	 viewBox="0 0 74.6 74.6" style="enable-background:new 0 0 74.6 74.6;" xml:space="preserve">
<style type="text/css">
	.st0{fill:#808080;}
	.st1{fill:#CCCCCC;}
	.st2{fill:#E6E6E6;}
	.st3{fill:#F2F2F2;}
	.st4{fill:#FFFFFF;}
</style>
<g>
	<path class="st0" d="M101.1,255.2H61.6c-9.6,0-17.5-7.9-17.5-17.5v-39.6c0-9.6,7.9-17.5,17.5-17.5h39.6c9.6,0,17.5,7.9,17.5,17.5
		v39.6C118.7,247.4,110.8,255.2,101.1,255.2z"/>
	<g>
		<polygon class="st1" points="55.3,210.8 66.4,195.8 66.1,210.9 		"/>
		<polygon class="st2" points="66.4,195.8 80.8,194.4 66.1,210.9 		"/>
		<polygon class="st3" points="80.8,194.4 66.1,210.9 96.7,210.9 		"/>
		<polygon class="st2" points="80.8,194.4 96.2,195.8 96.7,210.9 		"/>
		<polygon class="st1" points="96.2,195.8 107.4,210.9 96.7,210.9 		"/>
		<polygon class="st4" points="66.1,210.9 81.3,241.5 96.7,210.9 		"/>
		<polygon class="st2" points="81.3,241.5 107.4,210.9 96.7,210.9 		"/>
		<polygon class="st2" points="55.3,210.8 66.1,210.9 81.3,241.5 		"/>
	</g>
</g>
<path class="st0" d="M57.1,74.6H17.5C7.9,74.6,0,66.7,0,57.1V17.5C0,7.9,7.9,0,17.5,0h39.6c9.6,0,17.5,7.9,17.5,17.5v39.6
	C74.6,66.7,66.7,74.6,57.1,74.6z"/>
<g>
	<path class="st4" d="M20.6,40.7l-8,13.6h-5l10.7-17.4L7.5,19.4h5.1L21,33.1l8-13.7h5.1L23.4,36.9l10.7,17.4h-5.2L20.6,40.7z"/>
	<path class="st4" d="M51.5,26.4c4.3,0,8.2,2.2,10.2,5.4V17.3h4.6v37h-4.6v-5.2c-1.7,3-5.2,5.6-10.2,5.6c-7.4,0-13-5.8-13-14.3
		C38.5,31.9,44.1,26.4,51.5,26.4z M52.4,30.4c-5,0-9.3,3.7-9.3,10.1s4.3,10.3,9.3,10.3s9.3-3.8,9.3-10.2
		C61.7,34.2,57.4,30.4,52.4,30.4z"/>
</g>
<g>
	<path class="st0" d="M2.9,281.7h-39.6c-9.6,0-17.5-7.9-17.5-17.5v-39.6c0-9.6,7.9-17.5,17.5-17.5H2.9c9.6,0,17.5,7.9,17.5,17.5
		v39.6C20.4,273.8,12.5,281.7,2.9,281.7z"/>
	<polygon class="st4" points="-34.8,232.6 -34.9,245.4 1,256.4 1,243.9 	"/>
	<polygon class="st1" points="-34.8,232.6 0.1,221.7 0.1,234.7 -14.4,239 	"/>
	<polygon class="st1" points="-19.5,250.1 -34.8,254.8 -34.8,268.4 1,256.4 	"/>
</g>
</svg>
